<?xml version="1.0" standalone="no"?><!DOCTYPE svg PUBLIC "-//W3C//DTD SVG 1.1//EN" "http://www.w3.org/Graphics/SVG/1.1/DTD/svg11.dtd"><svg t="1587127273566" class="icon" viewBox="0 0 1024 1024" version="1.1" xmlns="http://www.w3.org/2000/svg" p-id="2548" xmlns:xlink="http://www.w3.org/1999/xlink" width="200" height="200"><defs><style type="text/css"></style></defs><path d="M778.496 469.504l86.592 29.76-23.786667 23.381333 51.605334 78.826667c3.946667 6.058667 7.893333 12.138667 11.946666 18.24l-22.698666 138.005333c-0.213333 1.429333-0.384 2.901333-0.469334 4.565334l-3.008 17.408c-0.810667 4.693333-1.578667 9.024-2.261333 13.312l-139.904 56.96-8.213333-2.773334c-18.645333-6.293333-37.226667-12.544-55.786667-19.029333a56.64 56.64 0 0 0-52.736 7.146667c-18.261333 12.736-36.714667 25.173333-55.146667 37.632l-5.333333 3.562666-14.656-22.442666c-12.373333-18.88-24.704-37.76-36.842667-55.253334 0.064-5.504 0.042667-11.029333 0.042667-16.554666-0.021333-5.845333-0.042667-11.733333 0.064-17.514667a49.365333 49.365333 0 0 0-29.098667-46.805333c-2.773333-1.301333-5.482667-2.709333-8.192-4.117334a266.709333 266.709333 0 0 0-14.314666-6.997333 52.138667 52.138667 0 0 0-21.269334-4.416c-7.829333 0-15.68 1.685333-22.613333 5.013333-5.888 2.858667-11.690667 5.866667-17.514667 8.874667-7.061333 3.626667-14.101333 7.296-21.226666 10.538667-1.706667 0.746667-2.986667 1.002667-3.008 1.024-18.368 0.362667-36.693333 0.277333-54.997334 0.277333l-27.669333 0.128c-31.68-19.456-63.402667-38.826667-95.146667-58.24l-43.584-26.688L178.346667 583.893333l-67.242667-68.266666c-7.722667-7.850667-15.466667-15.701333-23.274667-23.701334 4.906667-10.090667 9.877333-20.16 14.826667-30.229333l9.536-19.370667 22.357333-7.594666a3944.106667 3944.106667 0 0 1 44.8-15.061334 57.322667 57.322667 0 0 0 34.56-30.634666l2.453334-5.162667c5.376-11.413333 10.730667-22.869333 17.28-35.029333 22.4-15.658667 45.013333-30.933333 67.626666-46.186667l12.373334-8.341333 34.752 28.266666c32.704 26.645333 65.408 53.290667 98.133333 79.786667a76.586667 76.586667 0 0 0 28.714667 14.442667c31.424 8.234667 62.912 16.192 94.549333 24.042666a59.669333 59.669333 0 0 0 32.469333-1.088c20.010667-6.549333 39.893333-13.269333 59.84-20.394666a54.613333 54.613333 0 0 0 32.32-32.810667c3.306667-9.685333 6.442667-19.413333 9.6-29.141333 4.181333-12.821333 8.32-25.642667 12.885334-38.336a22.826667 22.826667 0 0 1 4.053333-6.08c5.12-5.909333 10.730667-11.392 16.490667-17.066667l49.834666-50.346667-59.690666-30.656c6.165333-5.930667 13.12-13.909333 17.536-24.981333 5.866667-14.72 4.949333-28.842667 4.352-38.186667-0.128-1.877333-0.298667-3.776-0.277334-5.568l-0.021333-8.490666-0.021333-4.821334c15.104-7.808 30.208-15.573333 45.397333-23.168l12.629333 12.8c9.642667 9.813333 19.285333 19.669333 29.013334 29.290667 10.026667 9.941333 24.469333 15.978667 38.570666 16.170667 15.872 0.213333 31.722667 0.170667 47.573334 0.170666h13.12v13.632c0.064 31.488 0.128 62.976-0.661334 95.850667-7.765333 16.192-15.722667 32.277333-23.68 48.362667-9.28 18.773333-18.56 37.525333-27.541333 56.448l-31.445333-25.322667-73.642667 112.362667z m85.802667-47.722667c14.250667 16.853333 41.258667 14.336 52.352-9.408 18.24-39.04 37.952-77.397333 56.618666-116.266666 2.816-5.845333 4.586667-12.864 4.672-19.370667 0.405333-39.061333 0.213333-78.122667 0.170667-117.184-0.021333-21.610667-12.16-33.984-33.322667-34.048-23.146667-0.042667-46.293333 0.149333-69.44-0.170667a14.421333 14.421333 0 0 1-9.109333-3.84c-16.021333-15.786667-31.616-32.021333-47.488-48-9.728-9.770667-22.485333-12.224-34.56-6.250666-20.394667 10.090667-40.661333 20.522667-60.885333 30.997333-11.050667 5.738667-16.341333 15.36-16.704 27.818667-0.213333 6.570667 0 13.162667-0.064 19.733333-0.085333 9.536 2.24 20.117333-1.066667 28.330667-3.157333 8-12.117333 13.610667-18.56 20.266666-16.874667 17.450667-13.034667 40.896 8.512 52.010667l20.672 10.624c-9.6 9.706667-19.029333 18.410667-27.413333 28.074667a64.64 64.64 0 0 0-11.968 19.626666c-8.021333 22.528-14.954667 45.44-22.677334 68.053334a11.989333 11.989333 0 0 1-6.4 6.485333c-19.456 6.954667-39.04 13.546667-58.666666 19.968a17.173333 17.173333 0 0 1-8.981334 0.213333 7566.122667 7566.122667 0 0 1-93.930666-23.893333 33.877333 33.877333 0 0 1-12.608-6.293333c-46.208-37.376-92.224-74.965333-138.325334-112.469334-13.013333-10.581333-25.728-11.114667-39.68-1.664-28.821333 19.498667-57.728 38.826667-86.250666 58.794667a46.656 46.656 0 0 0-13.333334 15.445333c-7.466667 13.44-13.909333 27.498667-20.501333 41.450667a14.506667 14.506667 0 0 1-9.301333 8.32c-23.765333 7.786667-47.402667 16-71.125334 24a31.957333 31.957333 0 0 0-19.349333 16.938667c-9.642667 19.712-19.413333 39.402667-29.013333 59.178666-6.784 13.994667-4.693333 26.645333 6.144 37.802667 11.733333 12.053333 23.573333 24.021333 35.392 36.032l38.613333 39.210667c-6.464 13.226667-12.8 26.112-19.050667 39.04-9.002667 18.474667-4.629333 33.813333 12.8 44.458666 48.405333 29.632 96.853333 59.093333 145.216 88.810667 6.826667 4.181333 14.016 6.186667 21.930667 6.165333 27.946667-0.085333 55.893333 0.277333 83.84-0.256 6.613333-0.128 13.632-2.048 19.733333-4.8 13.504-6.101333 26.453333-13.44 39.808-19.882666a10.474667 10.474667 0 0 1 7.893334-0.064c7.466667 3.285333 14.506667 7.402667 21.909333 10.837333 3.328 1.557333 4.522667 3.605333 4.437333 7.296-0.213333 11.456 0.042667 22.912-0.106666 34.346667a39.04 39.04 0 0 0 6.762666 22.741333c19.072 28.864 37.952 57.877333 56.917334 86.826667 11.797333 17.962667 28.650667 21.461333 46.272 9.536 23.082667-15.594667 46.250667-31.104 69.098666-47.061334 4.906667-3.413333 8.938667-3.690667 14.336-1.813333 25.728 8.96 51.584 17.557333 77.632 26.368-9.536 19.413333-19.221333 39.253333-29.248 59.712h60.16c0-5.141333-0.554667-10.048 0.106667-14.805333 1.557333-11.114667-2.069333-19.370667-10.666667-26.453334-6.784-5.589333-12.522667-12.501333-18.901333-19.008 4.522667-1.301333 8.234667-2.090667 11.690667-3.477333 49.493333-20.096 98.965333-40.32 148.437333-60.437333 11.733333-4.8 18.24-13.525333 20.117333-26.154667 1.152-7.744 2.56-15.466667 4.202667-24.96l25.984 52.650667c9.941333-10.069333 19.413333-19.584 28.757333-29.226667 0.853333-0.917333 1.258667-2.666667 1.258667-4.053333 0.085333-19.072 0.064-38.144 0.064-58.56l-53.802667 27.264c0-1.493333-0.106667-2.346667 0-3.157334 7.68-46.634667 15.338667-93.269333 23.04-139.882666 1.493333-9.237333 0.128-17.664-5.12-25.472-6.698667-9.984-13.184-20.117333-19.776-30.186667-8.661333-13.226667-17.301333-26.453333-26.282666-40.106667 4.565333-4.522667 9.109333-8.618667 13.226666-13.098666a30.72 30.72 0 0 0-11.477333-50.026667c-6.229333-2.389333-12.629333-4.330667-18.944-6.485333-11.328-3.882667-22.698667-7.786667-34.709333-11.946667l17.749333-27.093333c1.024 0.832 1.770667 1.258667 2.282667 1.898666z" p-id="2549"></path></svg>