<?xml version="1.0" standalone="no"?><!DOCTYPE svg PUBLIC "-//W3C//DTD SVG 1.1//EN" "http://www.w3.org/Graphics/SVG/1.1/DTD/svg11.dtd"><svg t="1588406238266" class="icon" viewBox="0 0 1024 1024" version="1.1" xmlns="http://www.w3.org/2000/svg" p-id="2132" xmlns:xlink="http://www.w3.org/1999/xlink" width="200" height="200"><defs><style type="text/css"></style></defs><path d="M554.656 836.256v-409.6h-85.344v409.6l-98.144-98.144-59.744 59.744 200.544 200.544 200.544-200.544-59.744-59.744z" p-id="2133"></path><path d="M806.4 256c-21.344-145.056-145.056-256-294.4-256S234.656 110.944 217.6 256C93.856 264.544 0 366.944 0 490.656c0 128 106.656 234.656 234.656 234.656h64v-85.344h-64c-85.344 0-149.344-64-149.344-149.344s64-149.344 149.344-149.344h4.256l59.744 29.856V298.592c0-119.456 93.856-213.344 213.344-213.344s213.344 93.856 213.344 213.344v72.544l59.744-29.856h4.256c85.344 0 149.344 64 149.344 149.344s-64 149.344-149.344 149.344h-64v85.344h64c128 0 234.656-106.656 234.656-234.656 0-123.744-93.856-226.144-217.6-234.656z" p-id="2134"></path></svg>