<?xml version="1.0" standalone="no"?><!DOCTYPE svg PUBLIC "-//W3C//DTD SVG 1.1//EN" "http://www.w3.org/Graphics/SVG/1.1/DTD/svg11.dtd"><svg t="1587393987996" class="icon" viewBox="0 0 1611 1024" version="1.1" xmlns="http://www.w3.org/2000/svg" p-id="1036" xmlns:xlink="http://www.w3.org/1999/xlink" width="314.6484375" height="200"><defs><style type="text/css"></style></defs><path d="M184.078083 1019.007151c-6.657132-4.992849-11.64998-9.985698-16.642829-14.978546-13.314263-6.657132-8.321415-16.642829-11.649981-36.614225s-16.642829-14.978546-28.292809-8.321414-13.314263 0-13.314264-14.978547-9.985698-8.321415-9.985697-33.285658-8.321415-23.299961-19.971395-33.285659c-11.64998-6.657132-19.971395-16.642829-24.964244-29.957092-11.64998-23.299961-19.971395-21.635678-26.628527-6.657132s-11.64998 16.642829-18.307112 14.978546-26.628527-36.614224-3.328566-33.285658 13.314263-8.321415 21.635678-23.299961-6.657132-19.971395 3.328566-33.285659c8.321415-14.978546 4.992849-34.949941-6.657132-46.599922-11.64998-14.978546-9.985698-13.314263-13.314263-33.285658s28.29281-11.64998 36.614224-19.971396 14.978546-16.642829 19.971395 1.664283 28.29281 1.664283 44.935639-16.642829 34.949941-14.978546 33.285659-1.664283 6.657132 13.314263 18.307112 13.314264 26.628527-28.29281 33.285658-1.664283 8.321415 1.664283 21.635679-8.321415c19.971395-13.314263 36.614224-26.628527 53.257053-44.935639 26.628527-28.29281 46.599922-21.635678 64.907034-11.649981s13.314263-1.664283 23.299961-11.64998 8.321415-21.635678 6.657132-36.614224c-3.328566-9.985698-1.664283-21.635678 3.328566-29.957093 4.992849-13.314263 6.657132-29.957093 1.664283-43.271356-3.328566-18.307112-23.299961-21.635678-34.949942-33.285659-13.314263-8.321415-26.628527-13.314263-43.271356-14.978546-14.978546-3.328566-8.321415-13.314263-8.321414-29.957093 0-11.64998-14.978546-18.307112-23.299961-21.635678l-3.328566-3.328566c0-4.992849-3.328566-13.314263-1.664283-26.628527 1.664283-26.628527 0-24.964244-9.985698-36.614224s-1.664283-11.64998 1.664283-24.964244 8.321415-14.978546-4.992849-29.957093l-4.992848-4.992848c-19.971395-21.635678-13.314263-43.271356-3.328566-51.592771s16.642829-9.985698 18.307112-24.964244c1.664283-21.635678 1.664283-19.971395 19.971395-16.642829 18.307112 3.328566 36.614224 8.321415 54.921337 14.978546 13.314263 4.992849 21.635678-8.321415 33.285658-8.321415s6.657132-11.64998 1.664283-26.628527c-4.992849-16.642829-11.64998-31.621376-23.299961-44.935639-8.321415-8.321415-13.314263-4.992849-21.635678 0s-14.978546 6.657132-19.971395 3.328566-14.978546-11.64998-9.985697-33.285658-8.321415-21.635678-43.271357-29.957093-16.642829-6.657132-8.321414-21.635678c4.992849-4.992849 11.64998-8.321415 18.307112-8.321415 13.314263-1.664283 31.621376 1.664283 49.928488 1.664283 19.971395 0 38.278507 4.992849 53.257053 14.978547 13.314263 6.657132 59.914185 11.64998 73.228449-3.328566s21.635678-3.328566 21.635678 6.657131c1.664283 11.64998 13.314263 18.307112 24.964244 16.64283 1.664283 0 3.328566 0 3.328566-1.664283 9.985698-8.321415 21.635678-13.314263 33.285659-16.64283h9.985697c4.992849 0 11.64998 0 16.64283 3.328566l4.992848 3.328566c9.985698 8.321415 18.307112 19.971395 26.628527 29.957093 9.985698 11.64998 4.992849 28.29281 19.971395 41.607073s34.949941 8.321415 39.942791 19.971395c3.328566 6.657132 4.992849 18.307112 9.985697 28.29281s8.321415 13.314263 14.978547 13.314263c14.978546-1.664283 14.978546 1.664283 43.271356 16.64283s36.614224 23.299961 63.242751 36.614224 36.614224 8.321415 66.571317 3.328566c21.635678-4.992849 43.271356-4.992849 64.907034 0 16.642829 3.328566 21.635678-4.992849 34.949942-9.985698s26.628527-9.985698 31.621375-3.328565 14.978546-8.321415 34.949942 11.64998 14.978546 21.635678 36.614224 8.321415c3.328566-1.664283 6.657132-4.992849 9.985698-6.657132 9.985698-3.328566 18.307112-11.64998 23.299961-19.971395 4.992849-8.321415 8.321415-3.328566 13.314263 9.985697s3.328566 21.635678 8.321415 34.949942c3.328566 9.985698 1.664283 21.635678-3.328566 29.957093-1.664283 8.321415 0 1.664283 8.321415 18.307112s11.64998 39.94279 26.628527 36.614224c3.328566 0 9.985698-6.657132 16.642829 4.992849 3.328566 4.992849 0 11.64998 3.328566 16.642829s0 4.992849 13.314263-3.328566 13.314263-18.307112 23.299961-14.978546c3.328566 1.664283 8.321415 6.657132 14.978546 9.985698 24.964244 11.64998 19.971395 13.314263 36.614225 9.985697s31.621376-8.321415 29.957093 8.321415-11.64998 24.964244 4.992848 29.957093 16.642829 11.64998 38.278508 18.307112 26.628527 9.985698 41.607073 1.664283 11.64998-3.328566 19.971395-16.64283 19.971395-21.635678 23.299961-4.992848 1.664283 24.964244 11.649981 31.621375c8.321415 4.992849 18.307112 9.985698 28.292809 14.978547 4.992849 4.992849 9.985698 8.321415 14.978547 13.314263 1.664283 1.664283 3.328566 3.328566 4.992848 6.657132 13.314263 14.978546 18.307112 34.949941 23.299961 24.964244s11.64998-14.978546 21.635679-4.992849 13.314263 16.642829 28.292809 11.64998 11.64998-1.664283 23.299961 13.314264c9.985698 11.64998 24.964244 21.635678 24.964244 24.964244s-8.321415 1.664283-11.64998 3.328566c-16.642829 8.321415-33.285659 16.642829-33.285659 29.957092s3.328566 23.299961-6.657132 23.299961-4.992849 16.642829 6.657132 33.285659c6.657132 8.321415 11.64998 18.307112 14.978547 28.29281 1.664283 4.992849 3.328566 11.64998 3.328565 18.307112 0 11.64998-4.992849 13.314263 9.985698 23.299961 16.642829 13.314263 26.628527 31.621376 28.29281 51.592771 4.992849 24.964244 9.985698 54.921337 19.971395 63.242751-6.657132 1.664283-11.64998 4.992849-18.307112 9.985697-38.278507 28.29281-43.271356-23.299961-84.87843-14.978546-8.321415 1.664283-18.307112 0-26.628527-3.328566 0 3.328566 0 6.657132-1.664282 9.985698-3.328566 4.992849-4.992849 19.971395-6.657132 26.628527-4.992849 18.307112-33.285659 24.964244-54.921337 24.964244s-14.978546 0-8.321414 19.971395-14.978546 6.657132-31.621376 4.992848-11.64998 4.992849-19.971395 24.964244-11.64998 14.978546-23.299961 24.964244-28.29281-1.664283-44.935639 9.985698c-8.321415 4.992849-16.642829 8.321415-26.628527 6.657132-8.321415 0-16.642829-1.664283-23.299961-4.992849-11.64998-3.328566-14.978546 9.985698-14.978546 19.971395s-31.621376 19.971395-38.278508 23.299961c-9.985698 11.64998-16.642829 26.628527-23.299961 41.607073l-1.664283 3.328566c-4.992849-1.664283-9.985698-4.992849-14.978546-8.321415-4.992849-8.321415-8.321415-18.307112-6.657132-28.292809 8.321415-9.985698-28.29281 14.978546-36.614224-9.985698s-4.992849-16.642829-1.664283-29.957093 18.307112-21.635678 19.971395-38.278507c0-11.64998-6.657132-4.992849-9.985698-16.642829-1.664283-3.328566 4.992849-16.642829 3.328566-24.964244s-16.642829-3.328566-18.307112-9.985698c-6.657132-16.642829-13.314263-18.307112-19.971395-26.628527l-4.992849-6.657131c-8.321415 6.657132-14.978546 14.978546-21.635678 23.299961-18.307112 21.635678-33.285659 51.592771-41.607073 59.914185-14.978546 16.642829-21.635678 6.657132-38.278507-1.664283s-14.978546-34.949941-18.307113-61.578468c0-4.992849-1.664283-9.985698-4.992848-11.649981l-8.321415 11.649981c-4.992849 4.992849-8.321415 9.985698-9.985698 16.642829-3.328566 13.314263-26.628527 31.621376-39.94279 23.299961-16.642829-6.657132-34.949941-3.328566-46.599922 9.985698-9.985698 11.64998-23.299961 6.657132-44.935639-11.649981-21.635678-14.978546-39.94279-31.621376-58.249902-51.592771-8.321415-11.64998-23.299961-18.307112-36.614225-16.642829-18.307112 1.664283-34.949941 0-53.257054-3.328566-29.957093-6.657132-58.249902-18.307112-84.878429-31.621375-24.964244-11.64998-48.264205-13.314263-61.578468-1.664283s-14.978546 6.657132-41.607073 3.328565-9.985698 38.278507 8.321414 56.58562-8.321415 19.971395-24.964244 34.949942-24.964244 9.985698-36.614224-6.657132-28.29281-16.642829-44.935639-18.307112-49.928488 0-66.571317 21.635678-14.978546 18.307112-31.621376 18.307112c-3.328566 0-6.657132 1.664283-9.985698 3.328566l-14.978546 9.985697c-6.657132 4.992849-11.64998 13.314263-13.314263 23.299961 0 9.985698 1.664283 18.307112 0 21.635678s-11.64998 13.314263-14.978547 16.64283-18.307112 46.599922-21.635678 53.257053v3.328566z" p-id="1037"></path></svg>