<?xml version="1.0" standalone="no"?><!DOCTYPE svg PUBLIC "-//W3C//DTD SVG 1.1//EN" "http://www.w3.org/Graphics/SVG/1.1/DTD/svg11.dtd"><svg t="1587394376436" class="icon" viewBox="0 0 1024 1024" version="1.1" xmlns="http://www.w3.org/2000/svg" p-id="1794" width="200" height="200" xmlns:xlink="http://www.w3.org/1999/xlink"><defs><style type="text/css"></style></defs><path d="M986.069333 682.88c-18.858667-29.098667-58.752-36.010667-88.746666-18.688l-137.301334 79.232-195.712-108.672-73.941333 42.666667 145.92 137.472-109.013333 62.933333-94.421334-44.032-55.424 32 177.066667 116.906667a42.666667 42.666667 0 0 0 44.8 1.322666l69.546667-40.106666 295.594666-170.666667a64 64 0 0 0 21.632-90.368" fill="#ffffff" p-id="1795"></path><path d="M512 42.666667C253.184 42.666667 42.666667 253.184 42.666667 512c0 158.549333 79.232 305.28 211.882666 392.490667l46.890667-71.338667a390.101333 390.101333 0 0 1-43.904-33.706667l59.690667-97.834666a64.426667 64.426667 0 0 0-15.616-84.522667 85.418667 85.418667 0 0 1-30.421334-88.917333l12.074667-46.762667A80.938667 80.938667 0 0 0 237.397333 386.986667l-75.050666-32.896a385.706667 385.706667 0 0 1 209.792-199.338667l-12.501334 33.493333a167.338667 167.338667 0 0 0 81.834667 208.426667l35.157333 17.578667a188.416 188.416 0 0 1 80.469334 77.013333l57.173333 102.912c23.893333 43.093333 85.333333 44.629333 111.445333 2.858667l41.216-65.962667a132.394667 132.394667 0 0 0 6.144-129.450667 53.76 53.76 0 0 1 20.48-70.229333l42.069334-25.216a381.44 381.44 0 0 1 56.405333 261.205333l84.48 12.202667C979.712 557.354667 981.333333 534.613333 981.333333 512c0-258.816-210.517333-469.333333-469.333333-469.333333" p-id="1796"></path></svg>